<?xml version="1.0" encoding="UTF-8" standalone="no"?>
<!--
  AI W LICZBACH – plakat (styl Twojego oryginalu, rozszerzony o elementy z briefu)
  Edytowalny w Adobe Illustrator (File > Open).
  Kanwa 1600 x 1300, jednostki = piksele (1 user-unit).
  Sekcje: Naglowek | TOP6 AI + Uzytkownicy + AI w branzach | BIG STATS | OS CZASU | Wykres rynku | Zrodla
-->
<svg xmlns="http://www.w3.org/2000/svg" xmlns:xlink="http://www.w3.org/1999/xlink"
     width="1600" height="1300" viewBox="0 0 1600 1300">

  <defs>
    <linearGradient id="gradGrowth" x1="0" y1="1" x2="0" y2="0">
      <stop offset="0" stop-color="#5BC0DE"/>
      <stop offset="1" stop-color="#E07A5F"/>
    </linearGradient>
    <linearGradient id="bg" x1="0" y1="0" x2="0" y2="1">
      <stop offset="0" stop-color="#1A1F2B"/>
      <stop offset="1" stop-color="#0F1521"/>
    </linearGradient>

    <style><![CDATA[
      .title    { font-family: 'Playfair Display','Georgia','Times New Roman',serif; font-weight: 900; fill:#FFFFFF; }
      .subtitle { font-family: 'Playfair Display','Georgia',serif; font-weight: 700; font-style: italic; fill:#FFFFFF; }
      .tagline  { font-family: 'Georgia',serif; font-weight: 400; font-style: italic; fill:#9AA3B2; }
      .h2       { font-family: 'Georgia',serif; font-weight: 700; fill:#FFFFFF; }
      .th       { font-family: 'Georgia',serif; font-weight: 700; font-style: italic; fill:#5BC0DE; }
      .td       { font-family: 'Georgia',serif; font-weight: 700; fill:#FFFFFF; }
      .td-s     { font-family: 'Georgia',serif; font-weight: 400; fill:#E6E8EE; }
      .axis     { font-family: 'Georgia',serif; font-weight: 400; fill:#9AA3B2; }
      .lbl      { font-family: 'Georgia',serif; font-weight: 700; fill:#FFFFFF; }
      .yr       { font-family: 'Georgia',serif; font-weight: 700; fill:#FFFFFF; }
      .big      { font-family: 'Playfair Display','Georgia',serif; font-weight: 900; }
      .big-cap  { font-family: 'Georgia',serif; font-weight: 400; font-style: italic; fill:#9AA3B2; }
      .ev       { font-family: 'Georgia',serif; font-weight: 700; fill:#FFFFFF; }
      .ev-s     { font-family: 'Georgia',serif; font-weight: 400; font-style: italic; fill:#9AA3B2; }
    ]]></style>
  </defs>

  <!-- TLO -->
  <rect x="0" y="0" width="1600" height="1300" fill="url(#bg)"/>

  <!-- ============================================================
       NAGLOWEK
       ============================================================ -->
  <g id="header">
    <text class="title"    x="800" y="78"  font-size="56" text-anchor="middle" letter-spacing="3">AI W LICZBACH</text>
    <text class="subtitle" x="800" y="108" font-size="20" text-anchor="middle">Jak sztuczna inteligencja zdominowala swiat 2020-2026</text>
    <text class="tagline"  x="800" y="138" font-size="16" text-anchor="middle">6 lat • 1 mld+ uzytkownikow • 750 mld USD rynku • 78% firm</text>
  </g>

  <!-- ============================================================
       TABELA 1 (lewa) – TOP 6 AI
       ============================================================ -->
  <g id="tab1" transform="translate(40,170)">
    <rect x="0" y="0" width="500" height="36" fill="none" stroke="#FFFFFF" stroke-width="1.2"/>
    <text class="th" x="14"  y="24" font-size="15">AI</text>
    <text class="th" x="110" y="24" font-size="15">firma</text>
    <text class="th" x="220" y="24" font-size="15">uzytkownicy</text>
    <text class="th" x="350" y="24" font-size="15">zastosowanie</text>

    <g font-size="13">
      <rect x="0" y="36"  width="500" height="32" fill="none" stroke="#FFFFFF" stroke-width="0.8"/>
      <text class="td"   x="14"  y="58">ChatGPT</text>
      <text class="td-s" x="110" y="58">OpenAI</text>
      <text class="td-s" x="220" y="58">800 mln/tydz</text>
      <text class="td-s" x="350" y="58">rozmowy, kod, analiza</text>

      <rect x="0" y="68"  width="500" height="32" fill="none" stroke="#FFFFFF" stroke-width="0.8"/>
      <text class="td"   x="14"  y="90">Gemini</text>
      <text class="td-s" x="110" y="90">Google</text>
      <text class="td-s" x="220" y="90">750 mln/mies</text>
      <text class="td-s" x="350" y="90">Search, Gmail, Android</text>

      <rect x="0" y="100" width="500" height="32" fill="none" stroke="#FFFFFF" stroke-width="0.8"/>
      <text class="td"   x="14"  y="122">Copilot</text>
      <text class="td-s" x="110" y="122">Microsoft</text>
      <text class="td-s" x="220" y="122">~150 mln</text>
      <text class="td-s" x="350" y="122">Office 365, GitHub</text>

      <rect x="0" y="132" width="500" height="32" fill="none" stroke="#FFFFFF" stroke-width="0.8"/>
      <text class="td"   x="14"  y="154">Claude</text>
      <text class="td-s" x="110" y="154">Anthropic</text>
      <text class="td-s" x="220" y="154">19 mln/mies</text>
      <text class="td-s" x="350" y="154">programowanie, biznes</text>

      <rect x="0" y="164" width="500" height="32" fill="none" stroke="#FFFFFF" stroke-width="0.8"/>
      <text class="td"   x="14"  y="186">DeepSeek</text>
      <text class="td-s" x="110" y="186">DeepSeek (CN)</text>
      <text class="td-s" x="220" y="186">97 mln/mies</text>
      <text class="td-s" x="350" y="186">open-source, azjat.</text>

      <rect x="0" y="196" width="500" height="32" fill="none" stroke="#FFFFFF" stroke-width="0.8"/>
      <text class="td"   x="14"  y="218">Grok</text>
      <text class="td-s" x="110" y="218">xAI / E. Musk</text>
      <text class="td-s" x="220" y="218">35 mln/mies</text>
      <text class="td-s" x="350" y="218">X (Twitter), real-time</text>
    </g>

    <g stroke="#FFFFFF" stroke-width="0.8">
      <line x1="100" y1="0" x2="100" y2="228"/>
      <line x1="210" y1="0" x2="210" y2="228"/>
      <line x1="340" y1="0" x2="340" y2="228"/>
    </g>
  </g>

  <!-- ============================================================
       WYKRES POZIOMY – uzytkownicy
       ============================================================ -->
  <g id="bars" transform="translate(580,170)">
    <text class="h2" x="220" y="0" font-size="20" text-anchor="middle" font-style="italic">miesiecznie aktywni uzytkownicy</text>

    <line x1="100" y1="20" x2="100" y2="160" stroke="#FFFFFF" stroke-width="0.8"/>

    <text class="td" x="95" y="40" text-anchor="end" font-size="13">Chat GPT</text>
    <rect x="100" y="28" width="360" height="20" fill="#5BC0DE"/>
    <text class="td-s" x="468" y="42" font-size="11">800 mln*</text>

    <text class="td" x="95" y="62" text-anchor="end" font-size="13">Gemini</text>
    <rect x="100" y="50" width="338" height="20" fill="#5BC0DE"/>
    <text class="td-s" x="446" y="64" font-size="11">750 mln</text>

    <text class="td" x="95" y="84" text-anchor="end" font-size="13">DeepSeek</text>
    <rect x="100" y="72" width="44" height="20" fill="#5BC0DE"/>
    <text class="td-s" x="152" y="86" font-size="11">97 mln</text>

    <text class="td" x="95" y="106" text-anchor="end" font-size="13">Grok</text>
    <rect x="100" y="94" width="16" height="20" fill="#5BC0DE"/>
    <text class="td-s" x="124" y="108" font-size="11">35 mln</text>

    <text class="td" x="95" y="128" text-anchor="end" font-size="13" fill="#E07A5F">Claude</text>
    <rect x="100" y="116" width="9" height="20" fill="#E07A5F"/>
    <text class="td-s" x="117" y="130" font-size="11">19 mln</text>

    <text class="td" x="95" y="150" text-anchor="end" font-size="13">Perplexity</text>
    <rect x="100" y="138" width="10" height="20" fill="#5BC0DE"/>
    <text class="td-s" x="118" y="152" font-size="11">22 mln</text>

    <line x1="100" y1="166" x2="470" y2="166" stroke="#FFFFFF" stroke-width="0.6"/>
    <g class="axis" font-size="11">
      <text x="100" y="184" text-anchor="middle">0</text>
      <text x="145" y="184" text-anchor="middle">100</text>
      <text x="190" y="184" text-anchor="middle">200</text>
      <text x="235" y="184" text-anchor="middle">300</text>
      <text x="280" y="184" text-anchor="middle">400</text>
      <text x="325" y="184" text-anchor="middle">500</text>
      <text x="370" y="184" text-anchor="middle">600</text>
      <text x="415" y="184" text-anchor="middle">700</text>
      <text x="460" y="184" text-anchor="middle">800</text>
    </g>
    <text class="axis" x="220" y="210" text-anchor="middle" font-size="10" font-style="italic">
      * ChatGPT = WAU (tygodniowo), pozostale MAU (miesiecznie)
    </text>
  </g>

  <!-- ============================================================
       TABELA 2 (prawa) – AI W BRANZACH
       ============================================================ -->
  <g id="tab2" transform="translate(1100,170)">
    <rect x="0" y="0" width="460" height="36" fill="none" stroke="#FFFFFF" stroke-width="1.2"/>
    <text class="th" x="14"  y="24" font-size="15">branza</text>
    <text class="th" x="220" y="24" font-size="15">% firm</text>
    <text class="th" x="290" y="24" font-size="15">co konkretnie</text>

    <g font-size="13">
      <rect x="0" y="36"  width="460" height="24" fill="none" stroke="#FFFFFF" stroke-width="0.8"/>
      <text class="td"   x="14"  y="53">Telekomunikacja</text>
      <text class="td"   x="220" y="53" fill="#E07A5F">97%</text>
      <text class="td-s" x="290" y="53">optymalizacja sieci, BOK</text>

      <rect x="0" y="60"  width="460" height="24" fill="none" stroke="#FFFFFF" stroke-width="0.8"/>
      <text class="td"   x="14"  y="77">Technologia / IT</text>
      <text class="td"   x="220" y="77" fill="#E07A5F">90%+</text>
      <text class="td-s" x="290" y="77">kod, cyberbezp., automaty.</text>

      <rect x="0" y="84"  width="460" height="24" fill="none" stroke="#FFFFFF" stroke-width="0.8"/>
      <text class="td"   x="14"  y="101">Healthcare</text>
      <text class="td"   x="220" y="101" fill="#E07A5F">70-85%</text>
      <text class="td-s" x="290" y="101">diagnostyka, leki</text>

      <rect x="0" y="108" width="460" height="24" fill="none" stroke="#FFFFFF" stroke-width="0.8"/>
      <text class="td"   x="14"  y="125">Produkcja</text>
      <text class="td"   x="220" y="125" fill="#E07A5F">77%</text>
      <text class="td-s" x="290" y="125">kontrola jakosci, predykcja</text>

      <rect x="0" y="132" width="460" height="24" fill="none" stroke="#FFFFFF" stroke-width="0.8"/>
      <text class="td"   x="14"  y="149">Marketing / Sprzedaz</text>
      <text class="td"   x="220" y="149" fill="#E07A5F">65%</text>
      <text class="td-s" x="290" y="149">tresci, kampanie</text>

      <rect x="0" y="156" width="460" height="24" fill="none" stroke="#FFFFFF" stroke-width="0.8"/>
      <text class="td"   x="14"  y="173">Finanse / Banki</text>
      <text class="td"   x="220" y="173" fill="#E07A5F">63%</text>
      <text class="td-s" x="290" y="173">oszustwa, ryzyko</text>

      <rect x="0" y="180" width="460" height="24" fill="none" stroke="#FFFFFF" stroke-width="0.8"/>
      <text class="td"   x="14"  y="197">Profesjonalne uslugi</text>
      <text class="td"   x="220" y="197" fill="#E07A5F">62%</text>
      <text class="td-s" x="290" y="197">doradztwo, prawo</text>

      <rect x="0" y="204" width="460" height="24" fill="none" stroke="#FFFFFF" stroke-width="0.8"/>
      <text class="td"   x="14"  y="221">Edukacja</text>
      <text class="td"   x="220" y="221" fill="#E07A5F">40-50%</text>
      <text class="td-s" x="290" y="221">personalizacja, oceny</text>
    </g>

    <g stroke="#FFFFFF" stroke-width="0.8">
      <line x1="210" y1="0" x2="210" y2="228"/>
      <line x1="280" y1="0" x2="280" y2="228"/>
    </g>
  </g>

  <!-- ============================================================
       BIG STATS – 4 duze liczby (kotwice plakatu)
       ============================================================ -->
  <g id="bigstats" transform="translate(0,440)">
    <line x1="40" y1="0" x2="1560" y2="0" stroke="#FFFFFF" stroke-opacity="0.25" stroke-width="0.8"/>

    <!-- 1+ MLD -->
    <g transform="translate(220,0)">
      <text class="big" x="0" y="80" font-size="74" text-anchor="middle" fill="#E07A5F">1+ MLD</text>
      <text class="ev"   x="0" y="105" text-anchor="middle" font-size="14">ludzi uzywa AI</text>
      <text class="big-cap" x="0" y="122" text-anchor="middle" font-size="12">co najmniej raz w tygodniu</text>
    </g>

    <line x1="430" y1="20" x2="430" y2="125" stroke="#FFFFFF" stroke-opacity="0.20" stroke-width="0.6"/>

    <!-- 78% -->
    <g transform="translate(620,0)">
      <text class="big" x="0" y="80" font-size="74" text-anchor="middle" fill="#5BC0DE">78%</text>
      <text class="ev"   x="0" y="105" text-anchor="middle" font-size="14">firm wdrozylo AI</text>
      <text class="big-cap" x="0" y="122" text-anchor="middle" font-size="12">w przynajmniej jednym obszarze</text>
    </g>

    <line x1="820" y1="20" x2="820" y2="125" stroke="#FFFFFF" stroke-opacity="0.20" stroke-width="0.6"/>

    <!-- 41% -->
    <g transform="translate(1000,0)">
      <text class="big" x="0" y="80" font-size="74" text-anchor="middle" fill="#E07A5F">41%</text>
      <text class="ev"   x="0" y="105" text-anchor="middle" font-size="14">calego kodu</text>
      <text class="big-cap" x="0" y="122" text-anchor="middle" font-size="12">na swiecie pisze AI</text>
    </g>

    <line x1="1190" y1="20" x2="1190" y2="125" stroke="#FFFFFF" stroke-opacity="0.20" stroke-width="0.6"/>

    <!-- x25 -->
    <g transform="translate(1370,0)">
      <text class="big" x="0" y="80" font-size="74" text-anchor="middle" fill="#5BC0DE">×25</text>
      <text class="ev"   x="0" y="105" text-anchor="middle" font-size="14">wzrost wartosci rynku AI</text>
      <text class="big-cap" x="0" y="122" text-anchor="middle" font-size="12">w latach 2020 — 2030</text>
    </g>

    <line x1="40" y1="145" x2="1560" y2="145" stroke="#FFFFFF" stroke-opacity="0.25" stroke-width="0.8"/>
  </g>

  <!-- ============================================================
       OS CZASU 2020 - 2026
       ============================================================ -->
  <g id="timeline" transform="translate(0,620)">
    <text class="h2" x="800" y="0" font-size="22" text-anchor="middle" font-style="italic">Os czasu — kluczowe momenty rewolucji AI</text>

    <!-- linia osi -->
    <line x1="120" y1="100" x2="1480" y2="100" stroke="#FFFFFF" stroke-width="1.2"/>

    <!-- 2020 -->
    <g transform="translate(180,0)">
      <circle cx="0" cy="100" r="6" fill="#5BC0DE"/>
      <line x1="0" y1="100" x2="0" y2="60" stroke="#FFFFFF" stroke-width="0.5"/>
      <text class="ev"   x="0" y="50" text-anchor="middle" font-size="14">GPT-3</text>
      <text class="ev-s" x="0" y="36" text-anchor="middle" font-size="12">AlphaFold 2</text>
      <text class="yr"   x="0" y="125" text-anchor="middle" font-size="20">2020</text>
      <text class="ev-s" x="0" y="143" text-anchor="middle" font-size="11">pierwszy LLM</text>
    </g>

    <!-- 2021 -->
    <g transform="translate(380,0)">
      <circle cx="0" cy="100" r="6" fill="#5BC0DE"/>
      <line x1="0" y1="100" x2="0" y2="60" stroke="#FFFFFF" stroke-width="0.5"/>
      <text class="ev"   x="0" y="50" text-anchor="middle" font-size="14">Copilot</text>
      <text class="ev-s" x="0" y="36" text-anchor="middle" font-size="12">DALL-E</text>
      <text class="yr"   x="0" y="125" text-anchor="middle" font-size="20">2021</text>
      <text class="ev-s" x="0" y="143" text-anchor="middle" font-size="11">AI dla programistow</text>
    </g>

    <!-- 2022 — kluczowy moment -->
    <g transform="translate(580,0)">
      <circle cx="0" cy="100" r="9" fill="#E07A5F" stroke="#FFFFFF" stroke-width="1"/>
      <line x1="0" y1="100" x2="0" y2="60" stroke="#FFFFFF" stroke-width="0.5"/>
      <text class="ev"   x="0" y="50" text-anchor="middle" font-size="15" fill="#E07A5F">ChatGPT</text>
      <text class="ev-s" x="0" y="36" text-anchor="middle" font-size="12">30.11 — launch</text>
      <text class="yr"   x="0" y="125" text-anchor="middle" font-size="22" fill="#E07A5F">2022</text>
      <text class="ev-s" x="0" y="143" text-anchor="middle" font-size="11" fill="#E07A5F">100 mln w 2 mies. — rekord!</text>
    </g>

    <!-- 2023 -->
    <g transform="translate(780,0)">
      <circle cx="0" cy="100" r="6" fill="#5BC0DE"/>
      <line x1="0" y1="100" x2="0" y2="60" stroke="#FFFFFF" stroke-width="0.5"/>
      <text class="ev"   x="0" y="50" text-anchor="middle" font-size="14">GPT-4</text>
      <text class="ev-s" x="0" y="36" text-anchor="middle" font-size="12">Claude, Gemini</text>
      <text class="yr"   x="0" y="125" text-anchor="middle" font-size="20">2023</text>
      <text class="ev-s" x="0" y="143" text-anchor="middle" font-size="11">multimodalnosc</text>
    </g>

    <!-- 2024 -->
    <g transform="translate(980,0)">
      <circle cx="0" cy="100" r="6" fill="#5BC0DE"/>
      <line x1="0" y1="100" x2="0" y2="60" stroke="#FFFFFF" stroke-width="0.5"/>
      <text class="ev"   x="0" y="50" text-anchor="middle" font-size="14">Claude 3, GPT-4o</text>
      <text class="ev-s" x="0" y="36" text-anchor="middle" font-size="12">AI Act EU, Llama 3</text>
      <text class="yr"   x="0" y="125" text-anchor="middle" font-size="20">2024</text>
      <text class="ev-s" x="0" y="143" text-anchor="middle" font-size="11">pierwsza regulacja AI</text>
    </g>

    <!-- 2025 -->
    <g transform="translate(1180,0)">
      <circle cx="0" cy="100" r="6" fill="#5BC0DE"/>
      <line x1="0" y1="100" x2="0" y2="60" stroke="#FFFFFF" stroke-width="0.5"/>
      <text class="ev"   x="0" y="50" text-anchor="middle" font-size="14">GPT-5, Claude 4</text>
      <text class="ev-s" x="0" y="36" text-anchor="middle" font-size="12">DeepSeek R1, agenci</text>
      <text class="yr"   x="0" y="125" text-anchor="middle" font-size="20">2025</text>
      <text class="ev-s" x="0" y="143" text-anchor="middle" font-size="11">modele rozumowania</text>
    </g>

    <!-- 2026 — koniec -->
    <g transform="translate(1380,0)">
      <circle cx="0" cy="100" r="9" fill="#E07A5F" stroke="#FFFFFF" stroke-width="1"/>
      <line x1="0" y1="100" x2="0" y2="60" stroke="#FFFFFF" stroke-width="0.5"/>
      <text class="ev"   x="0" y="50" text-anchor="middle" font-size="15" fill="#E07A5F">Claude Opus 4.7</text>
      <text class="ev-s" x="0" y="36" text-anchor="middle" font-size="12">rynek 900 mld USD</text>
      <text class="yr"   x="0" y="125" text-anchor="middle" font-size="22" fill="#E07A5F">2026</text>
      <text class="ev-s" x="0" y="143" text-anchor="middle" font-size="11" fill="#E07A5F">AI = nowy prad</text>
    </g>
  </g>

  <!-- ============================================================
       WYKRES SLUPKOWY – RYNEK AI 2020-2030
       ============================================================ -->
  <g id="market" transform="translate(60,820)">
    <text class="h2" x="0" y="0" font-size="22" font-style="italic">Eksplozja rynku AI – wartosc globalna w mld USD</text>

    <g class="axis" font-size="12">
      <text x="50" y="40"  text-anchor="end">2500</text>
      <text x="50" y="120" text-anchor="end">2000</text>
      <text x="50" y="200" text-anchor="end">1500</text>
      <text x="50" y="280" text-anchor="end">1000</text>
      <text x="50" y="360" text-anchor="end">500</text>
      <text x="50" y="420" text-anchor="end">0</text>
    </g>

    <line x1="60" y1="420" x2="1480" y2="420" stroke="#FFFFFF" stroke-width="0.8"/>

    <!-- 2020 - 62 -->
    <g transform="translate(120,0)">
      <rect x="0" y="412" width="120" height="10"  fill="url(#gradGrowth)"/>
      <text class="lbl" x="60" y="402" text-anchor="middle" font-size="13">GPT-3</text>
      <text class="td-s" x="60" y="388" text-anchor="middle" font-size="11">62</text>
      <text class="yr"  x="60" y="448" text-anchor="middle" font-size="18">2020</text>
    </g>
    <!-- 2021 - 94 -->
    <g transform="translate(280,0)">
      <rect x="0" y="405" width="120" height="15" fill="url(#gradGrowth)"/>
      <text class="lbl" x="60" y="395" text-anchor="middle" font-size="13">Copilot</text>
      <text class="td-s" x="60" y="381" text-anchor="middle" font-size="11">94</text>
      <text class="yr"  x="60" y="448" text-anchor="middle" font-size="18">2021</text>
    </g>
    <!-- 2022 - 142 -->
    <g transform="translate(440,0)">
      <rect x="0" y="397" width="120" height="23" fill="url(#gradGrowth)"/>
      <text class="lbl" x="60" y="387" text-anchor="middle" font-size="13">ChatGPT</text>
      <text class="td-s" x="60" y="373" text-anchor="middle" font-size="11">142</text>
      <text class="yr"  x="60" y="448" text-anchor="middle" font-size="18">2022</text>
    </g>
    <!-- 2023 - 189 -->
    <g transform="translate(600,0)">
      <rect x="0" y="390" width="120" height="30" fill="url(#gradGrowth)"/>
      <text class="lbl" x="60" y="380" text-anchor="middle" font-size="13">GPT-4, Claude</text>
      <text class="td-s" x="60" y="366" text-anchor="middle" font-size="11">189</text>
      <text class="yr"  x="60" y="448" text-anchor="middle" font-size="18">2023</text>
    </g>
    <!-- 2024 - 224 -->
    <g transform="translate(760,0)">
      <rect x="0" y="384" width="120" height="36" fill="url(#gradGrowth)"/>
      <text class="lbl" x="60" y="374" text-anchor="middle" font-size="13">Claude 3, GPT-4o</text>
      <text class="td-s" x="60" y="360" text-anchor="middle" font-size="11">224</text>
      <text class="yr"  x="60" y="448" text-anchor="middle" font-size="18">2024</text>
    </g>
    <!-- 2025 - 757 -->
    <g transform="translate(920,0)">
      <rect x="0" y="299" width="120" height="121" fill="url(#gradGrowth)"/>
      <text class="lbl" x="60" y="289" text-anchor="middle" font-size="13">Claude 4, GPT-5</text>
      <text class="td-s" x="60" y="275" text-anchor="middle" font-size="11">757</text>
      <text class="yr"  x="60" y="448" text-anchor="middle" font-size="18">2025</text>
    </g>
    <!-- 2026 - 900 -->
    <g transform="translate(1080,0)">
      <rect x="0" y="276" width="120" height="144" fill="url(#gradGrowth)"/>
      <text class="lbl" x="60" y="266" text-anchor="middle" font-size="13">Claude 4.7, GPT-5.5</text>
      <text class="td-s" x="60" y="252" text-anchor="middle" font-size="11">900</text>
      <text class="yr"  x="60" y="448" text-anchor="middle" font-size="18">2026</text>
    </g>
    <!-- 2030 - 2480 prognoza -->
    <g transform="translate(1280,0)">
      <rect x="0" y="23" width="140" height="397" fill="url(#gradGrowth)"/>
      <text class="lbl" x="70" y="13" text-anchor="middle" font-size="13" font-style="italic">prognoza</text>
      <text class="td-s" x="70" y="-1" text-anchor="middle" font-size="12">2 480</text>
      <text class="yr"  x="70" y="448" text-anchor="middle" font-size="18">2030</text>
    </g>
  </g>

  <!-- ============================================================
       ZRODLA na dole
       ============================================================ -->
  <g id="sources" transform="translate(0,1255)">
    <line x1="40" y1="-15" x2="1560" y2="-15" stroke="#FFFFFF" stroke-opacity="0.20" stroke-width="0.6"/>
    <text class="th" x="40" y="0" font-size="11">ZRODLA:</text>
    <text class="axis" x="120" y="0" font-size="10">
      Statista (2025-2026), Precedence Research, Grand View Research, Fortune Business Insights, ABI Research, UNCTAD Tech Report 2025, McKinsey State of AI 2025,
    </text>
    <text class="axis" x="120" y="14" font-size="10">
      Menlo Ventures 2025, Sensor Tower, Similarweb 2026, Stack Overflow Developer Survey 2025, Anthropic Economic Index 2025, OpenAI Reports 2025-26, Google I/O 2025.
    </text>
    <text class="axis" x="1560" y="14" text-anchor="end" font-size="10" font-style="italic" fill="#E07A5F">Stan: maj 2026</text>
  </g>

</svg>
